<svg xmlns="http://www.w3.org/2000/svg" viewBox="0 0 512 512"><defs><style>.cls-1{fill:#c6668f;}.cls-2{fill:#ce404a;}.cls-3{fill:#b9cad8;}.cls-4{fill:#89bad8;}.cls-5{fill:#c9dcf1;}.cls-6{fill:#91c7ee;}.cls-7{fill:#a7b9ca;}.cls-8{fill:#9cacb8;}.cls-10,.cls-11,.cls-9{fill:none;stroke:#fff;stroke-width:10px;}.cls-11,.cls-9{stroke-miterlimit:10;}.cls-10{stroke-linejoin:round;}.cls-11{stroke-linecap:round;}.cls-12{fill:#2b3360;}.cls-13{fill:#37417d;}.cls-14{fill:#fff;}</style></defs><title>Artificial Intelligence</title><g id="BULINE"><circle class="cls-1" cx="256" cy="256" r="256"/></g><g id="Icons"><path class="cls-2" d="M390.8,473.67a256.2,256.2,0,0,1-269.6,0Z"/><path class="cls-3" d="M480.53,123.58v249a14.11,14.11,0,0,1-14.11,14.11H45.58a14.11,14.11,0,0,1-14.11-14.11v-249a14.1,14.1,0,0,1,13.38-14.09l.73,0H466.42l.73,0A14.1,14.1,0,0,1,480.53,123.58Z"/><path class="cls-4" d="M480.53,122.86V338.13H31.47V122.86c0-7.17,5.93-13,13.38-13.37l.73,0H466.42l.73,0C474.6,109.85,480.53,115.69,480.53,122.86Z"/><path class="cls-5" d="M480.53,122.86V372.58a14.11,14.11,0,0,1-14.11,14.11H102.16A14.12,14.12,0,0,1,88,372.58v-249a14.1,14.1,0,0,1,13.39-14.09l.73,0H466.42l.73,0C474.6,109.85,480.53,115.69,480.53,122.86Z"/><path class="cls-6" d="M480.53,122.86V338.13H88V122.86c0-7.17,5.93-13,13.39-13.37l.73,0H466.42l.73,0C474.6,109.85,480.53,115.69,480.53,122.86Z"/><circle class="cls-7" cx="256" cy="358.87" r="14.14"/><rect class="cls-7" x="214.68" y="386.69" width="82.64" height="71.76"/><rect class="cls-8" x="214.68" y="386.69" width="82.64" height="23.5"/><rect class="cls-5" x="165.24" y="458.45" width="176.14" height="30.44" rx="14"/><circle class="cls-9" cx="256" cy="306.01" r="12"/><circle class="cls-9" cx="317.25" cy="278.49" r="12"/><circle class="cls-9" cx="193.61" cy="278.49" r="12"/><circle class="cls-9" cx="220.77" cy="54.4" r="12"/><circle class="cls-9" cx="256" cy="22.95" r="12"/><circle class="cls-9" cx="288.62" cy="54.4" r="12"/><circle class="cls-9" cx="122.86" cy="191.71" r="12"/><line class="cls-10" x1="256" y1="239.01" x2="256" y2="294.01"/><line class="cls-9" x1="170.2" y1="191.71" x2="132.2" y2="191.71"/><circle class="cls-9" cx="394.86" cy="191.71" r="12"/><line class="cls-9" x1="347.53" y1="191.71" x2="385.53" y2="191.71"/><line class="cls-11" x1="256.15" y1="102.22" x2="256.15" y2="37.51"/><line class="cls-11" x1="288.62" y1="101.61" x2="288.62" y2="68.29"/><line class="cls-11" x1="220.77" y1="101.61" x2="220.77" y2="72.01"/><line class="cls-11" x1="256.15" y1="250.84" x2="256.15" y2="209.83"/><polyline class="cls-11" points="288.62 209.22 288.62 250.24 305.21 266.82"/><polyline class="cls-11" points="220.77 209.22 220.77 250.24 203.01 268"/><line class="cls-11" x1="307.71" y1="159.24" x2="348.72" y2="159.24"/><line class="cls-11" x1="308.32" y1="191.71" x2="349.33" y2="191.71"/><line class="cls-11" x1="308.32" y1="123.86" x2="349.33" y2="123.86"/><line class="cls-11" x1="162.68" y1="159.24" x2="203.69" y2="159.24"/><line class="cls-11" x1="163.29" y1="191.71" x2="204.3" y2="191.71"/><line class="cls-11" x1="163.29" y1="123.86" x2="204.3" y2="123.86"/><rect class="cls-12" x="198.57" y="99.6" width="116.37" height="116.37" rx="16.46"/><rect class="cls-13" x="211.48" y="112.51" width="90.56" height="90.56" rx="16.46"/><path class="cls-14" d="M267.5,179l-14.13-45.08a7.89,7.89,0,0,0-7.53-5.52h-6.59a7.89,7.89,0,0,0-7.54,5.56L217.8,179a4.23,4.23,0,0,0,4,5.48H227a4.23,4.23,0,0,0,4.05-3l2.46-8.05h15l2.29,8a4.22,4.22,0,0,0,4.07,3.07h8.62A4.22,4.22,0,0,0,267.5,179Zm-31.11-17.8,4.53-16.28,4.54,16.28Z"/><path class="cls-14" d="M286.24,128.4h-6.46a5.38,5.38,0,0,0-5.38,5.38v45.34a5.38,5.38,0,0,0,5.38,5.38h6.46a5.39,5.39,0,0,0,5.39-5.38V133.78A5.38,5.38,0,0,0,286.24,128.4Z"/></g></svg>