<svg version="1.1" id="Layer_1" xmlns="http://www.w3.org/2000/svg" xmlns:xlink="http://www.w3.org/1999/xlink" x="0px" y="0px"
	 width="100%" viewBox="0 0 245 235" enable-background="new 0 0 245 235" xml:space="preserve">
<path fill="#FFFFFF" opacity="1.000000" stroke="none" 
	d="
M35.000000,236.000000 
	C23.672842,236.000000 12.345683,236.000000 1.013894,236.000000 
	C1.009262,157.715515 1.009262,79.431046 1.009262,1.073282 
	C82.573265,1.073282 164.146606,1.073282 245.859985,1.073282 
	C245.859985,79.333160 245.859985,157.666550 245.859985,236.000000 
	C228.251343,236.000000 210.594330,236.000000 192.502533,235.655350 
	C197.274078,228.504181 202.997299,222.025894 207.573532,214.819275 
	C215.781494,201.893372 220.689499,187.461639 221.832748,172.276627 
	C223.699020,147.488602 215.813553,125.177223 201.873154,104.917191 
	C199.263397,101.124344 196.383881,97.014587 192.629333,94.614922 
	C184.415985,89.365456 175.529694,85.176460 166.978409,80.445625 
	C160.595596,76.914444 154.265182,73.283661 147.986542,69.570221 
	C139.452423,64.522797 131.341232,58.594719 122.395233,54.457138 
	C113.919395,50.537010 104.764786,48.436794 94.947189,49.904915 
	C80.391197,52.081615 67.244667,57.212307 56.992828,67.746658 
	C47.177727,77.832245 37.877094,88.501266 29.149944,99.545685 
	C10.802335,122.765030 1.119108,149.070587 6.234504,178.839523 
	C9.541559,198.084839 16.169302,216.425873 30.962797,230.540268 
	C32.576206,232.079620 33.666870,234.166885 35.000000,236.000000 
M165.441223,37.126629 
	C160.516785,49.736629 162.760086,60.998852 172.243301,70.567513 
	C180.685715,79.086006 193.723099,81.375549 204.553360,76.704308 
	C217.033646,71.321396 224.415222,58.716587 222.877274,45.414261 
	C221.366989,32.351200 210.995132,21.581335 197.692383,19.262947 
	C184.929352,17.038618 172.312820,23.833666 165.441223,37.126629 
z"/>
<path fill="#FDFDFD" opacity="1.000000" stroke="none" 
	d="
M35.460636,236.000000 
	C33.666870,234.166885 32.576206,232.079620 30.962797,230.540268 
	C16.169302,216.425873 9.541559,198.084839 6.234504,178.839523 
	C1.119108,149.070587 10.802335,122.765030 29.149944,99.545685 
	C37.877094,88.501266 47.177727,77.832245 56.992828,67.746658 
	C67.244667,57.212307 80.391197,52.081615 94.947189,49.904915 
	C104.764786,48.436794 113.919395,50.537010 122.395233,54.457138 
	C131.341232,58.594719 139.452423,64.522797 147.986542,69.570221 
	C154.265182,73.283661 160.595596,76.914444 166.978409,80.445625 
	C175.529694,85.176460 184.415985,89.365456 192.629333,94.614922 
	C196.383881,97.014587 199.263397,101.124344 201.873154,104.917191 
	C215.813553,125.177223 223.699020,147.488602 221.832748,172.276627 
	C220.689499,187.461639 215.781494,201.893372 207.573532,214.819275 
	C202.997299,222.025894 197.274078,228.504181 192.033875,235.655350 
	C188.307098,236.000000 184.614182,236.000000 180.467102,235.634583 
	C180.768127,234.297455 181.380798,233.154007 182.305511,232.386520 
	C184.976425,230.169769 187.919617,228.267166 190.492767,225.949127 
	C198.206848,218.999710 202.727798,209.994034 206.762375,200.611984 
	C211.789658,188.921478 215.084778,177.036346 215.173874,164.100327 
	C215.251556,152.824112 212.131836,142.496231 208.545074,132.142380 
	C201.993210,113.229187 190.416153,98.501274 171.752060,90.498230 
	C157.308075,84.304741 144.288437,75.945137 131.640564,66.826073 
	C118.442619,57.310425 103.741699,55.360210 88.139290,58.537079 
	C86.644691,58.841400 85.375511,60.252754 83.674438,61.254005 
	C81.661385,61.947903 79.975571,62.537987 77.900955,63.096336 
	C72.160378,66.782883 66.322296,69.974403 61.579773,74.352623 
	C55.636307,79.839523 50.860691,86.571457 45.100552,92.281319 
	C34.737518,102.553917 25.611542,113.727882 20.435051,127.440674 
	C16.947908,136.678329 13.559744,146.252014 12.291574,155.958145 
	C10.423841,170.253128 13.127079,184.262253 18.692131,197.810760 
	C24.502399,211.956268 32.030018,224.447998 45.314938,232.781860 
	C46.200909,233.337631 46.453056,234.903793 47.000000,236.000000 
	C43.307091,236.000000 39.614182,236.000000 35.460636,236.000000 
z"/>
<path fill="#FAFAFA" opacity="1.000000" stroke="none" 
	d="
M161.000000,236.000000 
	C128.312439,236.000000 95.624878,236.000000 62.411263,235.650558 
	C61.106857,234.778809 60.351009,234.218674 59.546566,233.740250 
	C53.574791,230.188553 46.747345,227.564484 41.770603,222.944839 
	C25.635660,207.967575 18.684723,188.216415 17.255184,166.937500 
	C15.995111,148.181061 22.496845,130.500336 33.365784,115.715340 
	C44.391987,100.716400 58.107716,87.687363 70.768456,73.908524 
	C72.028450,72.537262 74.142609,71.950851 76.012024,71.311401 
	C77.096306,72.927612 78.028900,74.232582 78.567146,75.693810 
	C75.878723,77.969826 73.306236,79.864235 71.361496,82.266785 
	C68.966560,85.225517 67.094711,88.607643 64.628517,91.911575 
	C54.110676,94.464470 47.397232,100.269920 45.370205,111.002106 
	C43.115772,112.492340 40.772915,113.647362 39.374817,115.511093 
	C31.874537,125.509384 27.530600,137.079117 24.334530,148.965408 
	C22.680510,155.116760 21.487715,161.905319 22.338404,168.096588 
	C23.611263,177.360397 26.063183,186.664032 29.449568,195.393692 
	C36.534672,213.658173 49.099651,226.769608 69.068123,230.324814 
	C79.602905,232.200424 90.480392,232.888321 101.197227,232.838501 
	C119.106697,232.755234 137.069641,232.317947 154.899475,230.762161 
	C168.843964,229.545410 180.709824,222.568253 188.786209,211.069550 
	C199.899185,195.247513 206.157196,177.695694 204.037643,157.854401 
	C202.560577,144.027664 198.043274,131.314789 190.156937,119.949966 
	C187.953094,116.774063 184.279541,114.618027 181.175385,111.613586 
	C180.555450,109.209366 180.040298,107.185707 179.917419,105.121979 
	C181.743271,105.758865 183.440048,106.142418 184.570831,107.156876 
	C201.070297,121.959114 207.001541,141.554626 208.879623,162.671494 
	C209.848312,173.563385 206.608994,184.023346 202.795837,194.130798 
	C195.660004,213.045700 183.965637,227.584793 163.744873,233.684448 
	C162.692810,234.001801 161.908798,235.207748 161.000000,236.000000 
z"/>
<path fill="#FCFCFC" opacity="1.000000" stroke="none" 
	d="
M161.468277,236.000000 
	C161.908798,235.207748 162.692810,234.001801 163.744873,233.684448 
	C183.965637,227.584793 195.660004,213.045700 202.795837,194.130798 
	C206.608994,184.023346 209.848312,173.563385 208.879623,162.671494 
	C207.001541,141.554626 201.070297,121.959114 184.570831,107.156876 
	C183.440048,106.142418 181.743271,105.758865 179.700378,104.882874 
	C176.481918,99.729752 173.035995,95.483856 167.461227,93.968285 
	C163.087189,92.779144 158.502823,92.363754 153.997070,91.266464 
	C152.770813,89.679993 151.713394,88.215599 150.320053,87.222488 
	C145.486710,83.777565 140.634705,80.339287 135.602493,77.198601 
	C130.903976,74.266174 125.966957,71.715919 121.013969,68.656982 
	C119.352829,63.016163 115.630096,61.241459 110.362312,61.308262 
	C101.577515,61.419670 92.788773,61.219292 84.001686,61.150192 
	C85.375511,60.252754 86.644691,58.841400 88.139290,58.537079 
	C103.741699,55.360210 118.442619,57.310425 131.640564,66.826073 
	C144.288437,75.945137 157.308075,84.304741 171.752060,90.498230 
	C190.416153,98.501274 201.993210,113.229187 208.545074,132.142380 
	C212.131836,142.496231 215.251556,152.824112 215.173874,164.100327 
	C215.084778,177.036346 211.789658,188.921478 206.762375,200.611984 
	C202.727798,209.994034 198.206848,218.999710 190.492767,225.949127 
	C187.919617,228.267166 184.976425,230.169769 182.305511,232.386520 
	C181.380798,233.154007 180.768127,234.297455 180.006454,235.634583 
	C173.978851,236.000000 167.957703,236.000000 161.468277,236.000000 
z"/>
<path fill="#FCFCFC" opacity="1.000000" stroke="none" 
	d="
M75.860336,71.000183 
	C74.142609,71.950851 72.028450,72.537262 70.768456,73.908524 
	C58.107716,87.687363 44.391987,100.716400 33.365784,115.715340 
	C22.496845,130.500336 15.995111,148.181061 17.255184,166.937500 
	C18.684723,188.216415 25.635660,207.967575 41.770603,222.944839 
	C46.747345,227.564484 53.574791,230.188553 59.546566,233.740250 
	C60.351009,234.218674 61.106857,234.778809 61.942604,235.650558 
	C57.310745,236.000000 52.621487,236.000000 47.466118,236.000000 
	C46.453056,234.903793 46.200909,233.337631 45.314938,232.781860 
	C32.030018,224.447998 24.502399,211.956268 18.692131,197.810760 
	C13.127079,184.262253 10.423841,170.253128 12.291574,155.958145 
	C13.559744,146.252014 16.947908,136.678329 20.435051,127.440674 
	C25.611542,113.727882 34.737518,102.553917 45.100552,92.281319 
	C50.860691,86.571457 55.636307,79.839523 61.579773,74.352623 
	C66.322296,69.974403 72.160378,66.782883 77.748978,63.408798 
	C77.277313,66.168724 76.568825,68.584457 75.860336,71.000183 
z"/>
<path fill="#5E99F8" opacity="1.000000" stroke="none" 
	d="
M165.615082,36.786125 
	C172.312820,23.833666 184.929352,17.038618 197.692383,19.262947 
	C210.995132,21.581335 221.366989,32.351200 222.877274,45.414261 
	C224.415222,58.716587 217.033646,71.321396 204.553360,76.704308 
	C193.723099,81.375549 180.685715,79.086006 172.243301,70.567513 
	C162.760086,60.998852 160.516785,49.736629 165.615082,36.786125 
z"/>
<path fill="#3E84F6" opacity="1.000000" stroke="none" 
	d="
M76.012024,71.311409 
	C76.568825,68.584457 77.277313,66.168724 78.137779,63.440533 
	C79.975571,62.537987 81.661385,61.947903 83.674438,61.254005 
	C92.788773,61.219292 101.577515,61.419670 110.362312,61.308262 
	C115.630096,61.241459 119.352829,63.016163 120.959885,69.071869 
	C121.074585,71.217911 121.122406,72.608574 121.103722,74.449280 
	C121.079872,77.930115 121.122536,80.960915 121.096046,84.435760 
	C121.026894,87.100128 121.026894,89.320450 121.026894,91.609505 
	C124.498573,91.609505 127.258812,91.609505 130.474426,91.696152 
	C135.289993,91.723991 139.650146,91.665176 144.455566,91.697281 
	C147.937851,91.727005 150.974869,91.665810 154.011887,91.604614 
	C158.502823,92.363754 163.087189,92.779144 167.461227,93.968285 
	C173.035995,95.483856 176.481918,99.729752 179.308090,104.922943 
	C180.040298,107.185707 180.555450,109.209366 181.121063,112.069656 
	C181.250122,116.262001 181.328735,119.617722 181.307404,123.431480 
	C181.207474,128.110535 181.207474,132.331558 181.207474,136.996887 
	C184.828384,136.996887 187.914047,136.996887 191.282440,137.201630 
	C196.099960,139.663132 196.781616,143.481155 195.587631,148.144562 
	C193.890778,149.562546 192.446442,150.792831 190.545685,151.999588 
	C187.299683,151.976044 184.510101,151.976044 181.154449,151.976044 
	C181.154449,159.290588 181.170395,166.073593 181.151215,172.856491 
	C181.108185,188.075974 172.144180,197.127548 157.014587,197.146118 
	C132.196152,197.176590 107.348587,196.397095 82.566544,197.347382 
	C51.697674,198.531052 43.887722,190.187912 45.719730,160.556625 
	C45.889381,157.812637 45.742321,155.049057 45.742321,152.044083 
	C41.970066,152.044083 38.983971,152.044083 35.692345,151.917572 
	C33.942863,150.520126 32.498905,149.249222 31.012936,147.618851 
	C29.993710,141.445679 31.578596,138.709824 37.444248,136.920013 
	C40.316792,136.977448 42.738922,136.977448 45.374710,136.977448 
	C45.374710,132.685822 45.374710,128.820114 45.502419,124.511307 
	C45.659344,119.710114 45.688568,115.352036 45.717789,110.993958 
	C47.397232,100.269920 54.110676,94.464470 65.091919,91.954422 
	C70.275681,91.798592 74.627762,91.704712 79.440720,91.708771 
	C88.486259,91.806717 97.070938,91.806717 106.404678,91.806717 
	C105.883308,86.391747 105.435928,81.745316 104.527290,77.013542 
	C95.697845,76.464661 87.329666,76.001106 78.961487,75.537560 
	C78.028900,74.232582 77.096306,72.927612 76.012024,71.311409 
M126.074287,106.955727 
	C112.048088,107.004768 98.021881,107.053810 83.068909,106.961151 
	C78.240730,106.946770 73.410439,106.837425 68.584969,106.944893 
	C63.825222,107.050896 60.904419,109.655388 60.880455,114.254280 
	C60.775478,134.397812 60.782650,154.542526 60.889385,174.686081 
	C60.913895,179.310455 63.794571,181.959686 68.531822,182.052399 
	C73.352852,182.146744 78.179199,181.969696 83.931023,182.054077 
	C103.620140,182.006561 123.309265,181.959030 143.924591,182.063797 
	C148.580841,182.072998 153.238419,182.155411 157.893005,182.072159 
	C163.232910,181.976669 166.032806,179.382782 166.054520,174.191971 
	C166.137314,154.403091 166.140366,134.613541 166.070953,114.824585 
	C166.053345,109.804237 163.336212,106.987160 158.421768,106.954338 
	C147.949448,106.884407 137.475616,107.039246 126.074287,106.955727 
z"/>
<path fill="#F8F9F9" opacity="1.000000" stroke="none" 
	d="
M195.840149,147.956863 
	C196.781616,143.481155 196.099960,139.663132 191.245117,136.841827 
	C189.417770,133.188889 188.176422,129.925522 186.303268,127.077744 
	C185.182297,125.373528 183.072617,124.319641 181.407349,122.973442 
	C181.328735,119.617722 181.250122,116.262001 181.225845,112.450211 
	C184.279541,114.618027 187.953094,116.774063 190.156937,119.949966 
	C198.043274,131.314789 202.560577,144.027664 204.037643,157.854401 
	C206.157196,177.695694 199.899185,195.247513 188.786209,211.069550 
	C180.709824,222.568253 168.843964,229.545410 154.899475,230.762161 
	C137.069641,232.317947 119.106697,232.755234 101.197227,232.838501 
	C90.480392,232.888321 79.602905,232.200424 69.068123,230.324814 
	C49.099651,226.769608 36.534672,213.658173 29.449568,195.393692 
	C26.063183,186.664032 23.611263,177.360397 22.338404,168.096588 
	C21.487715,161.905319 22.680510,155.116760 24.334530,148.965408 
	C27.530600,137.079117 31.874537,125.509384 39.374817,115.511093 
	C40.772915,113.647362 43.115772,112.492340 45.370209,111.002106 
	C45.688568,115.352036 45.659344,119.710114 45.180244,124.537399 
	C42.151527,128.958603 39.572681,132.910599 36.993835,136.862595 
	C31.578596,138.709824 29.993710,141.445679 30.684166,147.789093 
	C29.265125,152.557571 27.407396,156.750137 27.133873,161.043655 
	C26.242189,175.040512 30.595079,187.897949 37.066174,200.086487 
	C43.951420,213.055084 54.257549,222.083099 68.839645,224.988754 
	C77.388145,226.692139 86.199364,227.762558 94.904915,227.848343 
	C112.510941,228.021866 130.144363,227.719833 147.730270,226.867020 
	C160.662537,226.239883 172.649658,221.897614 181.404251,211.927795 
	C194.899826,196.558853 201.382339,178.417404 199.798523,157.857269 
	C199.538025,154.475555 197.211731,151.252991 195.840149,147.956863 
z"/>
<path fill="#F8F9F9" opacity="1.000000" stroke="none" 
	d="
M78.979851,91.610832 
	C74.627762,91.704712 70.275681,91.798592 65.460190,91.849625 
	C67.094711,88.607643 68.966560,85.225517 71.361496,82.266785 
	C73.306236,79.864235 75.878723,77.969826 78.567146,75.693810 
	C87.329666,76.001106 95.697845,76.464661 104.434418,77.392487 
	C103.142464,78.238083 101.497292,78.713051 99.819221,78.984978 
	C91.162460,80.387779 83.304543,83.072823 78.979851,91.610832 
z"/>
<path fill="#FAFAFA" opacity="1.000000" stroke="none" 
	d="
M153.997070,91.266464 
	C150.974869,91.665810 147.937851,91.727005 144.444336,91.355827 
	C137.999847,83.100807 129.729843,78.354797 121.170235,73.999245 
	C121.122406,72.608574 121.074585,71.217911 121.080841,69.412346 
	C125.966957,71.715919 130.903976,74.266174 135.602493,77.198601 
	C140.634705,80.339287 145.486710,83.777565 150.320053,87.222488 
	C151.713394,88.215599 152.770813,89.679993 153.997070,91.266464 
z"/>
<path fill="#F0F1F1" opacity="1.000000" stroke="none" 
	d="
M83.003212,181.911484 
	C78.179199,181.969696 73.352852,182.146744 68.531822,182.052399 
	C63.794571,181.959686 60.913895,179.310455 60.889385,174.686081 
	C60.782650,154.542526 60.775478,134.397812 60.880455,114.254280 
	C60.904419,109.655388 63.825222,107.050896 68.584969,106.944893 
	C73.410439,106.837425 78.240730,106.946770 83.483986,107.410873 
	C83.425064,109.272156 82.886330,110.665718 82.488106,112.098335 
	C80.596855,118.902153 82.176804,122.148842 88.959816,124.025017 
	C92.243309,124.933228 95.837158,124.648796 99.223518,125.269630 
	C107.638565,126.812355 115.664680,125.097076 123.389793,122.157242 
	C128.740295,120.121101 129.703979,116.979347 127.999321,111.419128 
	C127.567497,110.010590 127.329475,108.542633 127.002403,107.101982 
	C137.475616,107.039246 147.949448,106.884407 158.421768,106.954338 
	C163.336212,106.987160 166.053345,109.804237 166.070953,114.824585 
	C166.140366,134.613541 166.137314,154.403091 166.054520,174.191971 
	C166.032806,179.382782 163.232910,181.976669 157.893005,182.072159 
	C153.238419,182.155411 148.580841,182.072998 143.513153,181.601349 
	C143.727188,175.151016 144.643326,169.171509 144.815994,163.170593 
	C144.874176,161.148560 143.045029,159.072205 142.192108,156.656555 
	C142.653793,149.254105 143.406982,142.202866 143.183533,135.182709 
	C143.067139,131.525818 139.751053,129.438278 136.105438,129.416046 
	C132.473938,129.393860 129.826981,131.382843 128.848785,135.079788 
	C128.511047,136.356232 128.378708,137.687012 127.674316,138.995071 
	C117.632805,139.333282 108.069504,139.669403 98.408630,139.590240 
	C97.993286,132.926407 95.699226,129.669449 91.373192,129.325058 
	C87.449699,129.012711 83.411613,132.183670 83.320068,136.550003 
	C83.184944,142.995483 83.759041,149.455841 83.810516,156.228882 
	C83.060295,157.845245 82.050476,159.153885 82.080658,160.438065 
	C82.248978,167.599152 82.669151,174.754303 83.003212,181.911484 
z"/>
<path fill="#F1F2F3" opacity="1.000000" stroke="none" 
	d="
M35.997871,152.044083 
	C38.983971,152.044083 41.970066,152.044083 45.742321,152.044083 
	C45.742321,155.049057 45.889381,157.812637 45.719730,160.556625 
	C43.887722,190.187912 51.697674,198.531052 82.566544,197.347382 
	C107.348587,196.397095 132.196152,197.176590 157.014587,197.146118 
	C172.144180,197.127548 181.108185,188.075974 181.151215,172.856491 
	C181.170395,166.073593 181.154449,159.290588 181.154449,151.976044 
	C184.510101,151.976044 187.299683,151.976044 190.596222,152.402283 
	C191.399796,159.347458 192.998505,166.123581 191.770355,172.341324 
	C186.089142,201.103119 171.854675,218.033096 141.012268,217.951233 
	C131.074020,217.924866 121.139450,217.183029 111.199265,217.038559 
	C99.644073,216.870590 88.075447,217.284576 76.529617,216.915390 
	C65.956200,216.577316 56.500149,212.502930 49.973236,204.194244 
	C37.998837,188.950958 31.229227,171.948334 35.997871,152.044083 
z"/>
<path fill="#F6F6F6" opacity="1.000000" stroke="none" 
	d="
M35.692345,151.917572 
	C31.229227,171.948334 37.998837,188.950958 49.973236,204.194244 
	C56.500149,212.502930 65.956200,216.577316 76.529617,216.915390 
	C88.075447,217.284576 99.644073,216.870590 111.199265,217.038559 
	C121.139450,217.183029 131.074020,217.924866 141.012268,217.951233 
	C171.854675,218.033096 186.089142,201.103119 191.770355,172.341324 
	C192.998505,166.123581 191.399796,159.347458 191.052643,152.425827 
	C192.446442,150.792831 193.890778,149.562546 195.587631,148.144562 
	C197.211731,151.252991 199.538025,154.475555 199.798523,157.857269 
	C201.382339,178.417404 194.899826,196.558853 181.404251,211.927795 
	C172.649658,221.897614 160.662537,226.239883 147.730270,226.867020 
	C130.144363,227.719833 112.510941,228.021866 94.904915,227.848343 
	C86.199364,227.762558 77.388145,226.692139 68.839645,224.988754 
	C54.257549,222.083099 43.951420,213.055084 37.066174,200.086487 
	C30.595079,187.897949 26.242189,175.040512 27.133873,161.043655 
	C27.407396,156.750137 29.265125,152.557571 30.726177,148.148529 
	C32.498905,149.249222 33.942863,150.520126 35.692345,151.917572 
z"/>
<path fill="#F5F5F5" opacity="1.000000" stroke="none" 
	d="
M98.506203,140.005524 
	C108.069504,139.669403 117.632805,139.333282 127.745216,139.457214 
	C128.309998,143.054672 128.399673,146.193893 128.322418,149.329025 
	C128.228165,153.154678 128.841324,156.593872 132.525406,158.699860 
	C136.180252,160.789093 139.164093,159.115326 142.078476,157.020660 
	C143.045029,159.072205 144.874176,161.148560 144.815994,163.170593 
	C144.643326,169.171509 143.727188,175.151016 143.050049,181.525208 
	C123.309265,181.959030 103.620140,182.006561 83.467117,181.982788 
	C82.669151,174.754303 82.248978,167.599152 82.080658,160.438065 
	C82.050476,159.153885 83.060295,157.845245 84.080917,156.462006 
	C86.238174,159.835388 89.149605,160.277573 92.414612,159.405884 
	C95.956543,158.460251 98.092499,156.172974 98.207382,152.348999 
	C98.330978,148.235245 98.408546,144.120071 98.506203,140.005524 
z"/>
<path fill="#EEEEEE" opacity="1.000000" stroke="none" 
	d="
M126.538345,107.028854 
	C127.329475,108.542633 127.567497,110.010590 127.999321,111.419128 
	C129.703979,116.979347 128.740295,120.121101 123.389793,122.157242 
	C115.664680,125.097076 107.638565,126.812355 99.223518,125.269630 
	C95.837158,124.648796 92.243309,124.933228 88.959816,124.025017 
	C82.176804,122.148842 80.596855,118.902153 82.488106,112.098335 
	C82.886330,110.665718 83.425064,109.272156 83.947372,107.481735 
	C98.021881,107.053810 112.048088,107.004768 126.538345,107.028854 
z"/>
<path fill="#F0F1F1" opacity="1.000000" stroke="none" 
	d="
M79.440720,91.708771 
	C83.304543,83.072823 91.162460,80.387779 99.819221,78.984978 
	C101.497292,78.713051 103.142464,78.238083 104.895683,77.477829 
	C105.435928,81.745316 105.883308,86.391747 106.404678,91.806717 
	C97.070938,91.806717 88.486259,91.806717 79.440720,91.708771 
z"/>
<path fill="#F8F9F9" opacity="1.000000" stroke="none" 
	d="
M121.103722,74.449280 
	C129.729843,78.354797 137.999847,83.100807 143.999084,91.264908 
	C139.650146,91.665176 135.289993,91.723991 130.416046,91.380905 
	C126.989906,88.649902 124.077553,86.320801 121.165199,83.991699 
	C121.122536,80.960915 121.079872,77.930115 121.103722,74.449280 
z"/>
<path fill="#F1F2F3" opacity="1.000000" stroke="none" 
	d="
M181.307404,123.431480 
	C183.072617,124.319641 185.182297,125.373528 186.303268,127.077744 
	C188.176422,129.925522 189.417770,133.188889 190.962387,136.637100 
	C187.914047,136.996887 184.828384,136.996887 181.207474,136.996887 
	C181.207474,132.331558 181.207474,128.110535 181.307404,123.431480 
z"/>
<path fill="#F0F1F1" opacity="1.000000" stroke="none" 
	d="
M37.444252,136.920013 
	C39.572681,132.910599 42.151527,128.958603 45.052540,124.980507 
	C45.374710,128.820114 45.374710,132.685822 45.374710,136.977448 
	C42.738922,136.977448 40.316792,136.977448 37.444252,136.920013 
z"/>
<path fill="#F1F2F3" opacity="1.000000" stroke="none" 
	d="
M121.096046,84.435753 
	C124.077553,86.320801 126.989906,88.649902 129.960648,91.294250 
	C127.258812,91.609505 124.498573,91.609505 121.026894,91.609505 
	C121.026894,89.320450 121.026894,87.100128 121.096046,84.435753 
z"/>
<path fill="#4085F6" opacity="1.000000" stroke="none" 
	d="
M142.192108,156.656555 
	C139.164093,159.115326 136.180252,160.789093 132.525406,158.699860 
	C128.841324,156.593872 128.228165,153.154678 128.322418,149.329025 
	C128.399673,146.193893 128.309998,143.054672 128.223419,139.455109 
	C128.378708,137.687012 128.511047,136.356232 128.848785,135.079788 
	C129.826981,131.382843 132.473938,129.393860 136.105438,129.416046 
	C139.751053,129.438278 143.067139,131.525818 143.183533,135.182709 
	C143.406982,142.202866 142.653793,149.254105 142.192108,156.656555 
z"/>
<path fill="#4085F6" opacity="1.000000" stroke="none" 
	d="
M98.408630,139.590240 
	C98.408546,144.120071 98.330978,148.235245 98.207382,152.348999 
	C98.092499,156.172974 95.956543,158.460251 92.414612,159.405884 
	C89.149605,160.277573 86.238174,159.835388 84.301506,156.143005 
	C83.759041,149.455841 83.184944,142.995483 83.320068,136.550003 
	C83.411613,132.183670 87.449699,129.012711 91.373192,129.325058 
	C95.699226,129.669449 97.993286,132.926407 98.408630,139.590240 
z"/>
</svg>